<svg xmlns="http://www.w3.org/2000/svg" viewBox="0 0 640 512"><path d="M248 260c0 22.1-17.9 40-40 40s-40-17.9-40-40 17.9-48 40-48 40 25.9 40 48zm236-57.7l150 128c6.7 5.4 8 15.2 2.8 22.1l-78.2 104.3c-4.8 6.5-13.7 8.3-20.7 4.3l-150.4-86c-49 73.7-128.2 93-178.9 93C45.9 468-46.1 292.7 23.5 157.1A63.92 63.92 0 0 1 .5 108C.5 72.7 28.7 44 64 44c19 0 36.6 8.8 48.7 23.2 29.8-15.4 62.5-23.1 95.2-23.1 78.7 0 145 53.3 145.1 53.4l53.7 43c5.3 4.2 7.3 11.3 5.1 17.7l-10.2 29.5c-1.1 3.2-.1 6.7 2.6 8.9l25.2 20.2c2.6 2.1 6.2 2.3 9.1.6l27.4-16.2c5.7-3.5 12.9-3 18.1 1.1zM40.4 129.2c8-10.9 19.7-26.4 45-44.9C79.6 79 72 76 64 76c-17.7 0-32 14.3-32 32 0 8.1 3.3 15.4 8.4 21.2zm534.7 225.4c2.6-3.5 2-8.3-1.4-11l-102.4-81.9-32.2 19.1c-5.7 3.4-13 2.9-18.2-1.3l-68.8-63.1c-5.3-4.2-7.3-11.3-5.1-17.7l12-34.9c-62.3-44.5-89.7-71.7-151.2-71.8-42.7 0-82.8 16.6-113 46.8-62.4 62.4-62.4 171.9 0 234.3C125.1 403.4 165.3 420 208 420s82.9-16.6 113.1-46.9c7.5-7.5 20.4-15.8 26.3-24.7l24.8-37.3L531 401.8c3.5 2 7.9 1.1 10.4-2.1l33.7-45.1z"/></svg>