<svg xmlns="http://www.w3.org/2000/svg" viewBox="0 0 640 512"><path d="M208 192c-35.3 0-64 28.7-64 64s28.7 72 64 72 70.1-36.7 70.1-72-34.8-64-70.1-64zm0 104c-17.6 0-32-22.4-32-40s14.4-32 32-32 32 14.4 32 32-14.4 40-32 40zm257.7-94.9l-27.4 16.2c-2.9 1.7-6.5 1.4-9.1-.6L404 196.5c-2.6-2.1-3.7-5.7-2.6-8.9l10.2-29.5c2.2-6.4.1-13.5-5.1-17.7l-53.7-43c-41.1-37-94.1-53.3-144.8-53.3-32.7 0-65.3 7.7-95 23.1C100.9 52.8 83.3 44 64.3 44c-35.2 0-64 28.7-64 64 0 19.3 8.8 37.2 23.1 49.1-69 134.6 21.3 310.9 185 310.9 50.7 0 130-19.3 178.9-93L536 461c7 4 19.2 2.2 24-4.3l77-104.3c5.2-6.9 3.5-16.7-3.3-22.1l-149.9-128c-5.2-4.1-12.4-4.6-18.1-1.2zM32 108c0-17.7 14.3-32 32-32 8 0 15.6 3 21.4 8.2-25 18.3-36.9 33.3-45.4 44.9-5.2-5.7-8-13-8-21.1zm513.7 312.6c-2.4 3.2-6.9 4.1-10.4 2.1l-158-90.3c-15 22.6-56.5 103.1-168.6 103.6-44.7.2-88-16.7-120.7-47.2-73-68.2-74.5-191.2-4.4-261.3C116.8 94.3 160.9 76 207.9 76c80 0 113 36.8 170 82.3l-12 34.9c-2.2 6.4-.1 13.5 5.1 17.7l51.4 41.1c5.2 4.2 12.4 4.7 18.2 1.3l32.2-19.1L596 340.7c3.4 2.7 4 7.6 1.4 11l-51.7 68.9z"/></svg>